<mxfile host="app.diagrams.net" modified="2024-06-12T09:12:14.646Z" agent="Mozilla/5.0 (Windows NT 10.0; Win64; x64) AppleWebKit/537.36 (KHTML, like Gecko) Chrome/125.0.0.0 Safari/537.36" version="24.5.3" etag="01tWw34iekKPl5-RN-PH" type="github">
  <diagram name="第 1 页" id="fTTn9lcIm2pQBOfPkNkY">
    <mxGraphModel>
      <root>
        <mxCell id="0" />
        <mxCell id="1" parent="0" />
      </root>
    </mxGraphModel>
  </diagram>
</mxfile>
